<svg width="64" height="64" viewBox="0 0 64 64" fill="none" xmlns="http://www.w3.org/2000/svg">
  <circle cx="32" cy="32" r="32" fill="#FCE8EF"/>
  <path d="M22 34.5C18.96 34.5 16.5 32.04 16.5 29C16.5 25.96 18.96 23.5 22 23.5C24.69 23.5 26.92 25.44 27.39 28H36.61C37.08 25.44 39.31 23.5 42 23.5C45.04 23.5 47.5 25.96 47.5 29C47.5 32.04 45.04 34.5 42 34.5C39.31 34.5 37.08 32.56 36.61 30H27.39C26.92 32.56 24.69 34.5 22 34.5Z" fill="#D8336A"/>
  <path d="M22 40.5C18.96 40.5 16.5 42.96 16.5 46C16.5 49.04 18.96 51.5 22 51.5C25.04 51.5 27.5 49.04 27.5 46C27.5 43.91 26.34 42.09 24.63 41.16L29.68 33.93C29.98 33.5 30.45 33.24 30.97 33.24H33.03C33.55 33.24 34.02 33.5 34.32 33.93L39.37 41.16C37.66 42.09 36.5 43.91 36.5 46C36.5 49.04 38.96 51.5 42 51.5C45.04 51.5 47.5 49.04 47.5 46C47.5 42.96 45.04 40.5 42 40.5C40.96 40.5 39.99 40.79 39.16 41.3L35.14 35.55C34.54 34.69 33.56 34.18 32.51 34.18H31.49C30.44 34.18 29.46 34.69 28.86 35.55L24.84 41.3C24.01 40.79 23.04 40.5 22 40.5Z" fill="#D8336A"/>
</svg>
